<mxfile host="app.diagrams.net" modified="2022-03-05T10:20:40.816Z" agent="5.0 (Macintosh; Intel Mac OS X 10_15_7) AppleWebKit/537.36 (KHTML, like Gecko) Chrome/98.0.4758.109 Safari/537.36" etag="u1SOz6T1yw5OB4gbTEy1" version="16.6.5" type="github" pages="4">
  <diagram id="AwM2rcd0iUvYSeFLtnIT" name="图1-1 NVDIMM模式">
    <mxGraphModel dx="1426" dy="737" grid="1" gridSize="10" guides="1" tooltips="1" connect="1" arrows="1" fold="1" page="1" pageScale="1" pageWidth="827" pageHeight="1169" math="0" shadow="0">
      <root>
        <mxCell id="0" />
        <mxCell id="1" parent="0" />
        <mxCell id="2TGhp7ib2YCHG6_aAQog-1" value="" style="rounded=0;whiteSpace=wrap;html=1;" parent="1" vertex="1">
          <mxGeometry x="313" y="95" width="287" height="305" as="geometry" />
        </mxCell>
        <mxCell id="2TGhp7ib2YCHG6_aAQog-2" value="" style="rounded=1;whiteSpace=wrap;html=1;" parent="1" vertex="1">
          <mxGeometry x="328" y="120" width="92" height="100" as="geometry" />
        </mxCell>
        <mxCell id="2TGhp7ib2YCHG6_aAQog-3" value="Core" style="text;html=1;strokeColor=none;fillColor=none;align=center;verticalAlign=middle;whiteSpace=wrap;rounded=0;" parent="1" vertex="1">
          <mxGeometry x="340" y="130" width="60" height="30" as="geometry" />
        </mxCell>
        <mxCell id="2TGhp7ib2YCHG6_aAQog-4" value="L1 Cache" style="rounded=0;whiteSpace=wrap;html=1;" parent="1" vertex="1">
          <mxGeometry x="341" y="160" width="60" height="20" as="geometry" />
        </mxCell>
        <mxCell id="2TGhp7ib2YCHG6_aAQog-5" value="L2 Cache" style="rounded=0;whiteSpace=wrap;html=1;" parent="1" vertex="1">
          <mxGeometry x="341" y="190" width="60" height="20" as="geometry" />
        </mxCell>
        <mxCell id="2TGhp7ib2YCHG6_aAQog-7" value="" style="rounded=1;whiteSpace=wrap;html=1;" parent="1" vertex="1">
          <mxGeometry x="490" y="120" width="92" height="100" as="geometry" />
        </mxCell>
        <mxCell id="2TGhp7ib2YCHG6_aAQog-8" value="Core" style="text;html=1;strokeColor=none;fillColor=none;align=center;verticalAlign=middle;whiteSpace=wrap;rounded=0;" parent="1" vertex="1">
          <mxGeometry x="502" y="130" width="60" height="30" as="geometry" />
        </mxCell>
        <mxCell id="2TGhp7ib2YCHG6_aAQog-9" value="L1 Cache" style="rounded=0;whiteSpace=wrap;html=1;" parent="1" vertex="1">
          <mxGeometry x="503" y="160" width="60" height="20" as="geometry" />
        </mxCell>
        <mxCell id="2TGhp7ib2YCHG6_aAQog-10" value="L2 Cache" style="rounded=0;whiteSpace=wrap;html=1;" parent="1" vertex="1">
          <mxGeometry x="503" y="190" width="60" height="20" as="geometry" />
        </mxCell>
        <mxCell id="2TGhp7ib2YCHG6_aAQog-11" value="" style="ellipse;whiteSpace=wrap;html=1;aspect=fixed;" parent="1" vertex="1">
          <mxGeometry x="430" y="170" width="10" height="10" as="geometry" />
        </mxCell>
        <mxCell id="2TGhp7ib2YCHG6_aAQog-23" value="" style="ellipse;whiteSpace=wrap;html=1;aspect=fixed;" parent="1" vertex="1">
          <mxGeometry x="450" y="170" width="10" height="10" as="geometry" />
        </mxCell>
        <mxCell id="2TGhp7ib2YCHG6_aAQog-24" value="" style="ellipse;whiteSpace=wrap;html=1;aspect=fixed;" parent="1" vertex="1">
          <mxGeometry x="470" y="170" width="10" height="10" as="geometry" />
        </mxCell>
        <mxCell id="2TGhp7ib2YCHG6_aAQog-25" value="L3 Cache" style="rounded=0;whiteSpace=wrap;html=1;" parent="1" vertex="1">
          <mxGeometry x="328" y="240" width="252" height="30" as="geometry" />
        </mxCell>
        <mxCell id="2TGhp7ib2YCHG6_aAQog-26" value="Mesh Interconnect" style="rounded=0;whiteSpace=wrap;html=1;" parent="1" vertex="1">
          <mxGeometry x="328" y="290" width="252" height="30" as="geometry" />
        </mxCell>
        <mxCell id="2TGhp7ib2YCHG6_aAQog-29" value="IMC" style="rounded=0;whiteSpace=wrap;html=1;" parent="1" vertex="1">
          <mxGeometry x="328" y="340" width="81" height="30" as="geometry" />
        </mxCell>
        <mxCell id="2TGhp7ib2YCHG6_aAQog-30" value="IMC" style="rounded=0;whiteSpace=wrap;html=1;" parent="1" vertex="1">
          <mxGeometry x="499" y="340" width="81" height="30" as="geometry" />
        </mxCell>
        <mxCell id="2TGhp7ib2YCHG6_aAQog-36" value="" style="endArrow=none;html=1;rounded=0;" parent="1" edge="1">
          <mxGeometry width="50" height="50" relative="1" as="geometry">
            <mxPoint x="368" y="340" as="sourcePoint" />
            <mxPoint x="368" y="320" as="targetPoint" />
          </mxGeometry>
        </mxCell>
        <mxCell id="2TGhp7ib2YCHG6_aAQog-39" value="" style="endArrow=none;html=1;rounded=0;" parent="1" edge="1">
          <mxGeometry width="50" height="50" relative="1" as="geometry">
            <mxPoint x="539" y="340" as="sourcePoint" />
            <mxPoint x="539" y="320" as="targetPoint" />
          </mxGeometry>
        </mxCell>
        <mxCell id="2TGhp7ib2YCHG6_aAQog-41" value="" style="endArrow=none;html=1;rounded=0;" parent="1" edge="1">
          <mxGeometry width="50" height="50" relative="1" as="geometry">
            <mxPoint x="369" y="291" as="sourcePoint" />
            <mxPoint x="369" y="271" as="targetPoint" />
          </mxGeometry>
        </mxCell>
        <mxCell id="2TGhp7ib2YCHG6_aAQog-42" value="" style="endArrow=none;html=1;rounded=0;" parent="1" edge="1">
          <mxGeometry width="50" height="50" relative="1" as="geometry">
            <mxPoint x="540" y="290" as="sourcePoint" />
            <mxPoint x="540" y="270" as="targetPoint" />
          </mxGeometry>
        </mxCell>
        <mxCell id="2TGhp7ib2YCHG6_aAQog-43" value="CPU" style="text;html=1;strokeColor=none;fillColor=none;align=center;verticalAlign=middle;whiteSpace=wrap;rounded=0;" parent="1" vertex="1">
          <mxGeometry x="300" y="380" width="60" height="30" as="geometry" />
        </mxCell>
      </root>
    </mxGraphModel>
  </diagram>
  <diagram id="Ijdl67l9RtiR0zazkQeM" name="持久化边界移动">
    <mxGraphModel dx="946" dy="457" grid="1" gridSize="10" guides="1" tooltips="1" connect="1" arrows="1" fold="1" page="1" pageScale="1" pageWidth="827" pageHeight="1169" math="0" shadow="0">
      <root>
        <mxCell id="SxxZqXUbAvr3J-SV1dBs-0" />
        <mxCell id="SxxZqXUbAvr3J-SV1dBs-1" parent="SxxZqXUbAvr3J-SV1dBs-0" />
        <mxCell id="Nux1PDpyJkXMGIIeLjG2-10" style="edgeStyle=orthogonalEdgeStyle;shape=flexArrow;rounded=0;orthogonalLoop=1;jettySize=auto;html=1;exitX=1;exitY=0.5;exitDx=0;exitDy=0;fontSize=16;endArrow=block;strokeWidth=1;opacity=50;width=10;endWidth=8;endSize=6;" edge="1" parent="SxxZqXUbAvr3J-SV1dBs-1" source="Nux1PDpyJkXMGIIeLjG2-3" target="Nux1PDpyJkXMGIIeLjG2-4">
          <mxGeometry relative="1" as="geometry" />
        </mxCell>
        <mxCell id="Nux1PDpyJkXMGIIeLjG2-3" value="&lt;font style=&quot;font-size: 16px&quot; face=&quot;Times New Roman&quot;&gt;CPU&lt;/font&gt;" style="rounded=0;whiteSpace=wrap;html=1;strokeWidth=1;" vertex="1" parent="SxxZqXUbAvr3J-SV1dBs-1">
          <mxGeometry x="120" y="360" width="125" height="40" as="geometry" />
        </mxCell>
        <mxCell id="Nux1PDpyJkXMGIIeLjG2-4" value="&lt;font style=&quot;font-size: 16px&quot;&gt;NVM主存&lt;/font&gt;" style="rounded=0;whiteSpace=wrap;html=1;strokeWidth=1;fillColor=#f5f5f5;fontColor=#333333;strokeColor=#666666;fontFamily=Times New Roman;" vertex="1" parent="SxxZqXUbAvr3J-SV1dBs-1">
          <mxGeometry x="325" y="360" width="125" height="40" as="geometry" />
        </mxCell>
        <mxCell id="Nux1PDpyJkXMGIIeLjG2-5" value="&lt;font style=&quot;font-size: 16px&quot;&gt;外存&lt;/font&gt;" style="rounded=0;whiteSpace=wrap;html=1;strokeWidth=1;fillColor=#f5f5f5;fontColor=#333333;strokeColor=#666666;fontFamily=Times New Roman;" vertex="1" parent="SxxZqXUbAvr3J-SV1dBs-1">
          <mxGeometry x="530" y="360" width="125" height="40" as="geometry" />
        </mxCell>
        <mxCell id="Nux1PDpyJkXMGIIeLjG2-13" style="edgeStyle=orthogonalEdgeStyle;shape=flexArrow;rounded=0;orthogonalLoop=1;jettySize=auto;html=1;exitX=1;exitY=0.5;exitDx=0;exitDy=0;fontSize=16;endArrow=block;strokeWidth=1;opacity=50;width=10;endWidth=8;endSize=6;" edge="1" parent="SxxZqXUbAvr3J-SV1dBs-1">
          <mxGeometry relative="1" as="geometry">
            <mxPoint x="450" y="379.5" as="sourcePoint" />
            <mxPoint x="530" y="379.5" as="targetPoint" />
          </mxGeometry>
        </mxCell>
        <mxCell id="Nux1PDpyJkXMGIIeLjG2-14" style="edgeStyle=orthogonalEdgeStyle;shape=flexArrow;rounded=0;orthogonalLoop=1;jettySize=auto;html=1;exitX=1;exitY=0.5;exitDx=0;exitDy=0;fontSize=16;endArrow=block;strokeWidth=1;opacity=50;width=10;endWidth=8;endSize=6;" edge="1" parent="SxxZqXUbAvr3J-SV1dBs-1" source="Nux1PDpyJkXMGIIeLjG2-15" target="Nux1PDpyJkXMGIIeLjG2-16">
          <mxGeometry relative="1" as="geometry" />
        </mxCell>
        <mxCell id="Nux1PDpyJkXMGIIeLjG2-15" value="&lt;font style=&quot;font-size: 16px&quot; face=&quot;Times New Roman&quot;&gt;CPU&lt;/font&gt;" style="rounded=0;whiteSpace=wrap;html=1;strokeWidth=1;" vertex="1" parent="SxxZqXUbAvr3J-SV1dBs-1">
          <mxGeometry x="120" y="210" width="125" height="40" as="geometry" />
        </mxCell>
        <mxCell id="Nux1PDpyJkXMGIIeLjG2-16" value="&lt;font style=&quot;font-size: 16px&quot;&gt;DRAM主存&lt;/font&gt;" style="rounded=0;whiteSpace=wrap;html=1;strokeWidth=1;fontFamily=Times New Roman;" vertex="1" parent="SxxZqXUbAvr3J-SV1dBs-1">
          <mxGeometry x="325" y="210" width="125" height="40" as="geometry" />
        </mxCell>
        <mxCell id="Nux1PDpyJkXMGIIeLjG2-17" value="&lt;font style=&quot;font-size: 16px&quot;&gt;外存&lt;/font&gt;" style="rounded=0;whiteSpace=wrap;html=1;strokeWidth=1;fillColor=#f5f5f5;fontColor=#333333;strokeColor=#666666;fontFamily=Times New Roman;" vertex="1" parent="SxxZqXUbAvr3J-SV1dBs-1">
          <mxGeometry x="530" y="210" width="125" height="40" as="geometry" />
        </mxCell>
        <mxCell id="Nux1PDpyJkXMGIIeLjG2-18" style="edgeStyle=orthogonalEdgeStyle;shape=flexArrow;rounded=0;orthogonalLoop=1;jettySize=auto;html=1;exitX=1;exitY=0.5;exitDx=0;exitDy=0;fontSize=16;endArrow=block;strokeWidth=1;opacity=50;width=10;endWidth=8;endSize=6;" edge="1" parent="SxxZqXUbAvr3J-SV1dBs-1">
          <mxGeometry relative="1" as="geometry">
            <mxPoint x="450" y="229.5" as="sourcePoint" />
            <mxPoint x="530" y="229.5" as="targetPoint" />
          </mxGeometry>
        </mxCell>
        <mxCell id="Nux1PDpyJkXMGIIeLjG2-24" value="" style="endArrow=none;dashed=1;html=1;dashPattern=1 3;strokeWidth=5;rounded=0;fontSize=16;" edge="1" parent="SxxZqXUbAvr3J-SV1dBs-1">
          <mxGeometry width="50" height="50" relative="1" as="geometry">
            <mxPoint x="490" y="280" as="sourcePoint" />
            <mxPoint x="490" y="180" as="targetPoint" />
          </mxGeometry>
        </mxCell>
        <mxCell id="Nux1PDpyJkXMGIIeLjG2-25" value="" style="endArrow=none;dashed=1;html=1;dashPattern=1 3;strokeWidth=5;rounded=0;fontSize=16;" edge="1" parent="SxxZqXUbAvr3J-SV1dBs-1">
          <mxGeometry width="50" height="50" relative="1" as="geometry">
            <mxPoint x="280" y="420" as="sourcePoint" />
            <mxPoint x="280" y="320" as="targetPoint" />
          </mxGeometry>
        </mxCell>
        <mxCell id="Nux1PDpyJkXMGIIeLjG2-26" value="" style="curved=1;endArrow=classic;html=1;rounded=0;dashed=1;fontSize=16;strokeWidth=1;exitX=0.568;exitY=-0.125;exitDx=0;exitDy=0;exitPerimeter=0;entryX=0.424;entryY=-0.05;entryDx=0;entryDy=0;entryPerimeter=0;" edge="1" parent="SxxZqXUbAvr3J-SV1dBs-1" source="Nux1PDpyJkXMGIIeLjG2-16" target="Nux1PDpyJkXMGIIeLjG2-17">
          <mxGeometry width="50" height="50" relative="1" as="geometry">
            <mxPoint x="400" y="190" as="sourcePoint" />
            <mxPoint x="450" y="140" as="targetPoint" />
            <Array as="points">
              <mxPoint x="470" y="130" />
            </Array>
          </mxGeometry>
        </mxCell>
        <mxCell id="Nux1PDpyJkXMGIIeLjG2-27" value="fsync()" style="text;html=1;align=center;verticalAlign=middle;resizable=0;points=[];autosize=1;strokeColor=none;fillColor=none;fontSize=16;fontFamily=Times New Roman;" vertex="1" parent="SxxZqXUbAvr3J-SV1dBs-1">
          <mxGeometry x="460" y="140" width="60" height="20" as="geometry" />
        </mxCell>
        <mxCell id="Nux1PDpyJkXMGIIeLjG2-30" value="" style="curved=1;endArrow=classic;html=1;rounded=0;dashed=1;fontFamily=Times New Roman;fontSize=16;strokeWidth=1;exitX=0.5;exitY=1;exitDx=0;exitDy=0;entryX=0.5;entryY=1;entryDx=0;entryDy=0;" edge="1" parent="SxxZqXUbAvr3J-SV1dBs-1" source="Nux1PDpyJkXMGIIeLjG2-3" target="Nux1PDpyJkXMGIIeLjG2-4">
          <mxGeometry width="50" height="50" relative="1" as="geometry">
            <mxPoint x="200" y="500" as="sourcePoint" />
            <mxPoint x="250" y="450" as="targetPoint" />
            <Array as="points">
              <mxPoint x="280" y="480" />
            </Array>
          </mxGeometry>
        </mxCell>
        <mxCell id="Nux1PDpyJkXMGIIeLjG2-33" value="cache line刷新指令" style="text;html=1;align=center;verticalAlign=middle;resizable=0;points=[];autosize=1;strokeColor=none;fillColor=none;fontSize=16;fontFamily=Times New Roman;" vertex="1" parent="SxxZqXUbAvr3J-SV1dBs-1">
          <mxGeometry x="210" y="450" width="140" height="20" as="geometry" />
        </mxCell>
        <mxCell id="Nux1PDpyJkXMGIIeLjG2-34" value="持久化边界" style="text;html=1;align=center;verticalAlign=middle;resizable=0;points=[];autosize=1;strokeColor=none;fillColor=none;fontSize=16;fontFamily=Times New Roman;" vertex="1" parent="SxxZqXUbAvr3J-SV1dBs-1">
          <mxGeometry x="340" y="290" width="100" height="20" as="geometry" />
        </mxCell>
        <mxCell id="Nux1PDpyJkXMGIIeLjG2-35" value="" style="endArrow=none;startArrow=classic;html=1;rounded=0;dashed=1;fontFamily=Times New Roman;fontSize=16;strokeWidth=1;curved=1;endFill=0;" edge="1" parent="SxxZqXUbAvr3J-SV1dBs-1">
          <mxGeometry width="50" height="50" relative="1" as="geometry">
            <mxPoint x="290" y="350" as="sourcePoint" />
            <mxPoint x="380" y="320" as="targetPoint" />
          </mxGeometry>
        </mxCell>
        <mxCell id="Nux1PDpyJkXMGIIeLjG2-37" value="" style="endArrow=classic;html=1;rounded=0;dashed=1;fontFamily=Times New Roman;fontSize=16;strokeWidth=1;curved=1;exitX=0.78;exitY=-0.25;exitDx=0;exitDy=0;exitPerimeter=0;" edge="1" parent="SxxZqXUbAvr3J-SV1dBs-1" source="Nux1PDpyJkXMGIIeLjG2-34">
          <mxGeometry width="50" height="50" relative="1" as="geometry">
            <mxPoint x="420" y="310" as="sourcePoint" />
            <mxPoint x="480" y="260" as="targetPoint" />
          </mxGeometry>
        </mxCell>
      </root>
    </mxGraphModel>
  </diagram>
  <diagram id="rliNogsmXazIiJh4GPvb" name="缓存顺序问题">
    <mxGraphModel dx="1426" dy="737" grid="1" gridSize="10" guides="1" tooltips="1" connect="1" arrows="1" fold="1" page="1" pageScale="1" pageWidth="827" pageHeight="1169" math="0" shadow="0">
      <root>
        <mxCell id="1tPqPjB6ziKF1sVlmcnR-0" />
        <mxCell id="1tPqPjB6ziKF1sVlmcnR-1" parent="1tPqPjB6ziKF1sVlmcnR-0" />
        <mxCell id="1tPqPjB6ziKF1sVlmcnR-63" style="edgeStyle=none;rounded=0;orthogonalLoop=1;jettySize=auto;html=1;exitX=0.5;exitY=1;exitDx=0;exitDy=0;fontFamily=Times New Roman;fontSize=16;endArrow=classic;endFill=1;strokeWidth=1;" parent="1tPqPjB6ziKF1sVlmcnR-1" edge="1">
          <mxGeometry relative="1" as="geometry">
            <mxPoint x="625" y="400" as="sourcePoint" />
            <mxPoint x="625" y="400" as="targetPoint" />
          </mxGeometry>
        </mxCell>
        <mxCell id="1tPqPjB6ziKF1sVlmcnR-66" value="Node1" style="rounded=0;whiteSpace=wrap;html=1;fontFamily=Times New Roman;fontSize=16;strokeWidth=1;" parent="1tPqPjB6ziKF1sVlmcnR-1" vertex="1">
          <mxGeometry x="110" y="220" width="90" height="40" as="geometry" />
        </mxCell>
        <mxCell id="1tPqPjB6ziKF1sVlmcnR-71" style="edgeStyle=none;rounded=0;orthogonalLoop=1;jettySize=auto;html=1;exitX=0;exitY=0.5;exitDx=0;exitDy=0;entryX=1;entryY=0.5;entryDx=0;entryDy=0;fontFamily=Times New Roman;fontSize=16;endArrow=classic;endFill=1;strokeWidth=1;" parent="1tPqPjB6ziKF1sVlmcnR-1" source="1tPqPjB6ziKF1sVlmcnR-67" target="1tPqPjB6ziKF1sVlmcnR-66" edge="1">
          <mxGeometry relative="1" as="geometry" />
        </mxCell>
        <mxCell id="1tPqPjB6ziKF1sVlmcnR-67" value="Node0" style="rounded=0;whiteSpace=wrap;html=1;fontFamily=Times New Roman;fontSize=16;strokeWidth=1;" parent="1tPqPjB6ziKF1sVlmcnR-1" vertex="1">
          <mxGeometry x="250" y="220" width="90" height="40" as="geometry" />
        </mxCell>
        <mxCell id="1tPqPjB6ziKF1sVlmcnR-73" style="edgeStyle=none;rounded=0;orthogonalLoop=1;jettySize=auto;html=1;exitX=0.5;exitY=1;exitDx=0;exitDy=0;entryX=0.5;entryY=0;entryDx=0;entryDy=0;fontFamily=Times New Roman;fontSize=16;endArrow=classic;endFill=1;strokeWidth=1;" parent="1tPqPjB6ziKF1sVlmcnR-1" source="1tPqPjB6ziKF1sVlmcnR-72" target="1tPqPjB6ziKF1sVlmcnR-67" edge="1">
          <mxGeometry relative="1" as="geometry" />
        </mxCell>
        <mxCell id="1tPqPjB6ziKF1sVlmcnR-72" value="Head" style="rounded=0;whiteSpace=wrap;html=1;fontFamily=Times New Roman;fontSize=16;strokeWidth=1;" parent="1tPqPjB6ziKF1sVlmcnR-1" vertex="1">
          <mxGeometry x="250" y="150" width="90" height="40" as="geometry" />
        </mxCell>
        <mxCell id="1tPqPjB6ziKF1sVlmcnR-74" value="Node2" style="rounded=0;whiteSpace=wrap;html=1;fontFamily=Times New Roman;fontSize=16;strokeWidth=1;" parent="1tPqPjB6ziKF1sVlmcnR-1" vertex="1">
          <mxGeometry x="380" y="220" width="90" height="40" as="geometry" />
        </mxCell>
        <mxCell id="1tPqPjB6ziKF1sVlmcnR-75" value="Node1" style="rounded=0;whiteSpace=wrap;html=1;fontFamily=Times New Roman;fontSize=16;strokeWidth=1;" parent="1tPqPjB6ziKF1sVlmcnR-1" vertex="1">
          <mxGeometry x="560" y="220" width="90" height="40" as="geometry" />
        </mxCell>
        <mxCell id="1tPqPjB6ziKF1sVlmcnR-76" style="edgeStyle=none;rounded=0;orthogonalLoop=1;jettySize=auto;html=1;exitX=0;exitY=0.5;exitDx=0;exitDy=0;entryX=1;entryY=0.5;entryDx=0;entryDy=0;fontFamily=Times New Roman;fontSize=16;endArrow=classic;endFill=1;strokeWidth=1;" parent="1tPqPjB6ziKF1sVlmcnR-1" source="1tPqPjB6ziKF1sVlmcnR-77" target="1tPqPjB6ziKF1sVlmcnR-75" edge="1">
          <mxGeometry relative="1" as="geometry" />
        </mxCell>
        <mxCell id="1tPqPjB6ziKF1sVlmcnR-77" value="Node0" style="rounded=0;whiteSpace=wrap;html=1;fontFamily=Times New Roman;fontSize=16;strokeWidth=1;" parent="1tPqPjB6ziKF1sVlmcnR-1" vertex="1">
          <mxGeometry x="700" y="220" width="90" height="40" as="geometry" />
        </mxCell>
        <mxCell id="1tPqPjB6ziKF1sVlmcnR-78" style="edgeStyle=none;rounded=0;orthogonalLoop=1;jettySize=auto;html=1;exitX=0.5;exitY=1;exitDx=0;exitDy=0;entryX=0.5;entryY=0;entryDx=0;entryDy=0;fontFamily=Times New Roman;fontSize=16;endArrow=classic;endFill=1;strokeWidth=1;" parent="1tPqPjB6ziKF1sVlmcnR-1" source="1tPqPjB6ziKF1sVlmcnR-79" target="1tPqPjB6ziKF1sVlmcnR-77" edge="1">
          <mxGeometry relative="1" as="geometry" />
        </mxCell>
        <mxCell id="1tPqPjB6ziKF1sVlmcnR-79" value="Head" style="rounded=0;whiteSpace=wrap;html=1;fontFamily=Times New Roman;fontSize=16;strokeWidth=1;" parent="1tPqPjB6ziKF1sVlmcnR-1" vertex="1">
          <mxGeometry x="700" y="150" width="90" height="40" as="geometry" />
        </mxCell>
        <mxCell id="1tPqPjB6ziKF1sVlmcnR-81" style="edgeStyle=none;rounded=0;orthogonalLoop=1;jettySize=auto;html=1;exitX=0;exitY=0.5;exitDx=0;exitDy=0;entryX=1;entryY=0.5;entryDx=0;entryDy=0;fontFamily=Times New Roman;fontSize=16;endArrow=classic;endFill=1;strokeWidth=1;" parent="1tPqPjB6ziKF1sVlmcnR-1" source="1tPqPjB6ziKF1sVlmcnR-80" target="1tPqPjB6ziKF1sVlmcnR-77" edge="1">
          <mxGeometry relative="1" as="geometry" />
        </mxCell>
        <mxCell id="1tPqPjB6ziKF1sVlmcnR-80" value="Node2" style="rounded=0;whiteSpace=wrap;html=1;fontFamily=Times New Roman;fontSize=16;strokeWidth=1;" parent="1tPqPjB6ziKF1sVlmcnR-1" vertex="1">
          <mxGeometry x="830" y="220" width="90" height="40" as="geometry" />
        </mxCell>
        <mxCell id="1tPqPjB6ziKF1sVlmcnR-82" value="Node1" style="rounded=0;whiteSpace=wrap;html=1;fontFamily=Times New Roman;fontSize=16;strokeWidth=1;" parent="1tPqPjB6ziKF1sVlmcnR-1" vertex="1">
          <mxGeometry x="100" y="390" width="90" height="40" as="geometry" />
        </mxCell>
        <mxCell id="1tPqPjB6ziKF1sVlmcnR-83" style="edgeStyle=none;rounded=0;orthogonalLoop=1;jettySize=auto;html=1;exitX=0;exitY=0.5;exitDx=0;exitDy=0;entryX=1;entryY=0.5;entryDx=0;entryDy=0;fontFamily=Times New Roman;fontSize=16;endArrow=classic;endFill=1;strokeWidth=1;" parent="1tPqPjB6ziKF1sVlmcnR-1" source="1tPqPjB6ziKF1sVlmcnR-84" target="1tPqPjB6ziKF1sVlmcnR-82" edge="1">
          <mxGeometry relative="1" as="geometry" />
        </mxCell>
        <mxCell id="1tPqPjB6ziKF1sVlmcnR-84" value="Node0" style="rounded=0;whiteSpace=wrap;html=1;fontFamily=Times New Roman;fontSize=16;strokeWidth=1;" parent="1tPqPjB6ziKF1sVlmcnR-1" vertex="1">
          <mxGeometry x="240" y="390" width="90" height="40" as="geometry" />
        </mxCell>
        <mxCell id="1tPqPjB6ziKF1sVlmcnR-89" style="edgeStyle=none;rounded=0;orthogonalLoop=1;jettySize=auto;html=1;exitX=1;exitY=1;exitDx=0;exitDy=0;entryX=0.5;entryY=0;entryDx=0;entryDy=0;fontFamily=Times New Roman;fontSize=16;endArrow=classic;endFill=1;strokeWidth=1;" parent="1tPqPjB6ziKF1sVlmcnR-1" source="1tPqPjB6ziKF1sVlmcnR-86" target="1tPqPjB6ziKF1sVlmcnR-88" edge="1">
          <mxGeometry relative="1" as="geometry" />
        </mxCell>
        <mxCell id="1tPqPjB6ziKF1sVlmcnR-86" value="Head" style="rounded=0;whiteSpace=wrap;html=1;fontFamily=Times New Roman;fontSize=16;strokeWidth=1;" parent="1tPqPjB6ziKF1sVlmcnR-1" vertex="1">
          <mxGeometry x="240" y="320" width="90" height="40" as="geometry" />
        </mxCell>
        <mxCell id="1tPqPjB6ziKF1sVlmcnR-87" style="edgeStyle=none;rounded=0;orthogonalLoop=1;jettySize=auto;html=1;exitX=0;exitY=0.5;exitDx=0;exitDy=0;entryX=1;entryY=0.5;entryDx=0;entryDy=0;fontFamily=Times New Roman;fontSize=16;endArrow=classic;endFill=1;strokeWidth=1;" parent="1tPqPjB6ziKF1sVlmcnR-1" source="1tPqPjB6ziKF1sVlmcnR-88" target="1tPqPjB6ziKF1sVlmcnR-84" edge="1">
          <mxGeometry relative="1" as="geometry" />
        </mxCell>
        <mxCell id="1tPqPjB6ziKF1sVlmcnR-88" value="Node2" style="rounded=0;whiteSpace=wrap;html=1;fontFamily=Times New Roman;fontSize=16;strokeWidth=1;" parent="1tPqPjB6ziKF1sVlmcnR-1" vertex="1">
          <mxGeometry x="370" y="390" width="90" height="40" as="geometry" />
        </mxCell>
        <mxCell id="1tPqPjB6ziKF1sVlmcnR-90" value="Node1" style="rounded=0;whiteSpace=wrap;html=1;fontFamily=Times New Roman;fontSize=16;strokeWidth=1;" parent="1tPqPjB6ziKF1sVlmcnR-1" vertex="1">
          <mxGeometry x="565" y="390" width="90" height="40" as="geometry" />
        </mxCell>
        <mxCell id="1tPqPjB6ziKF1sVlmcnR-91" style="edgeStyle=none;rounded=0;orthogonalLoop=1;jettySize=auto;html=1;exitX=0;exitY=0.5;exitDx=0;exitDy=0;entryX=1;entryY=0.5;entryDx=0;entryDy=0;fontFamily=Times New Roman;fontSize=16;endArrow=classic;endFill=1;strokeWidth=1;" parent="1tPqPjB6ziKF1sVlmcnR-1" source="1tPqPjB6ziKF1sVlmcnR-92" target="1tPqPjB6ziKF1sVlmcnR-90" edge="1">
          <mxGeometry relative="1" as="geometry" />
        </mxCell>
        <mxCell id="1tPqPjB6ziKF1sVlmcnR-92" value="Node0" style="rounded=0;whiteSpace=wrap;html=1;fontFamily=Times New Roman;fontSize=16;strokeWidth=1;" parent="1tPqPjB6ziKF1sVlmcnR-1" vertex="1">
          <mxGeometry x="705" y="390" width="90" height="40" as="geometry" />
        </mxCell>
        <mxCell id="1tPqPjB6ziKF1sVlmcnR-93" style="edgeStyle=none;rounded=0;orthogonalLoop=1;jettySize=auto;html=1;exitX=1;exitY=1;exitDx=0;exitDy=0;entryX=0.5;entryY=0;entryDx=0;entryDy=0;fontFamily=Times New Roman;fontSize=16;endArrow=classic;endFill=1;strokeWidth=1;" parent="1tPqPjB6ziKF1sVlmcnR-1" source="1tPqPjB6ziKF1sVlmcnR-94" target="1tPqPjB6ziKF1sVlmcnR-96" edge="1">
          <mxGeometry relative="1" as="geometry" />
        </mxCell>
        <mxCell id="1tPqPjB6ziKF1sVlmcnR-94" value="Head" style="rounded=0;whiteSpace=wrap;html=1;fontFamily=Times New Roman;fontSize=16;strokeWidth=1;" parent="1tPqPjB6ziKF1sVlmcnR-1" vertex="1">
          <mxGeometry x="705" y="320" width="90" height="40" as="geometry" />
        </mxCell>
        <mxCell id="1tPqPjB6ziKF1sVlmcnR-96" value="Node2" style="rounded=0;whiteSpace=wrap;html=1;fontFamily=Times New Roman;fontSize=16;strokeWidth=1;" parent="1tPqPjB6ziKF1sVlmcnR-1" vertex="1">
          <mxGeometry x="835" y="390" width="90" height="40" as="geometry" />
        </mxCell>
        <mxCell id="1tPqPjB6ziKF1sVlmcnR-97" value="步骤a" style="text;html=1;align=center;verticalAlign=middle;resizable=0;points=[];autosize=1;strokeColor=none;fillColor=none;fontSize=16;fontFamily=Times New Roman;" parent="1tPqPjB6ziKF1sVlmcnR-1" vertex="1">
          <mxGeometry x="270" y="270" width="50" height="20" as="geometry" />
        </mxCell>
        <mxCell id="1tPqPjB6ziKF1sVlmcnR-98" value="步骤b" style="text;html=1;align=center;verticalAlign=middle;resizable=0;points=[];autosize=1;strokeColor=none;fillColor=none;fontSize=16;fontFamily=Times New Roman;" parent="1tPqPjB6ziKF1sVlmcnR-1" vertex="1">
          <mxGeometry x="715" y="270" width="60" height="20" as="geometry" />
        </mxCell>
        <mxCell id="1tPqPjB6ziKF1sVlmcnR-99" value="步骤c" style="text;html=1;align=center;verticalAlign=middle;resizable=0;points=[];autosize=1;strokeColor=none;fillColor=none;fontSize=16;fontFamily=Times New Roman;" parent="1tPqPjB6ziKF1sVlmcnR-1" vertex="1">
          <mxGeometry x="270" y="445" width="50" height="20" as="geometry" />
        </mxCell>
        <mxCell id="1tPqPjB6ziKF1sVlmcnR-100" value="乱序崩溃结果" style="text;html=1;align=center;verticalAlign=middle;resizable=0;points=[];autosize=1;strokeColor=none;fillColor=none;fontSize=16;fontFamily=Times New Roman;" parent="1tPqPjB6ziKF1sVlmcnR-1" vertex="1">
          <mxGeometry x="700" y="445" width="110" height="20" as="geometry" />
        </mxCell>
      </root>
    </mxGraphModel>
  </diagram>
  <diagram id="4RsF0SLyZyTZFmfFAZTA" name="整体架构">
    <mxGraphModel dx="1426" dy="737" grid="1" gridSize="10" guides="1" tooltips="1" connect="1" arrows="1" fold="1" page="1" pageScale="1" pageWidth="827" pageHeight="1169" math="0" shadow="0">
      <root>
        <mxCell id="AgWGpJ8_KRVizvYN5xJG-0" />
        <mxCell id="AgWGpJ8_KRVizvYN5xJG-1" parent="AgWGpJ8_KRVizvYN5xJG-0" />
        <mxCell id="AgWGpJ8_KRVizvYN5xJG-3" value="" style="rounded=0;whiteSpace=wrap;html=1;fontFamily=Times New Roman;fontSize=17;" vertex="1" parent="AgWGpJ8_KRVizvYN5xJG-1">
          <mxGeometry x="340" y="90" width="430" height="390" as="geometry" />
        </mxCell>
        <mxCell id="AgWGpJ8_KRVizvYN5xJG-4" value="" style="rounded=0;whiteSpace=wrap;html=1;fontFamily=Times New Roman;fontSize=17;" vertex="1" parent="AgWGpJ8_KRVizvYN5xJG-1">
          <mxGeometry x="20" y="90" width="200" height="380" as="geometry" />
        </mxCell>
        <mxCell id="AgWGpJ8_KRVizvYN5xJG-5" value="" style="rounded=0;whiteSpace=wrap;html=1;" vertex="1" parent="AgWGpJ8_KRVizvYN5xJG-1">
          <mxGeometry x="410" y="130" width="70" height="40" as="geometry" />
        </mxCell>
        <mxCell id="AgWGpJ8_KRVizvYN5xJG-6" value="" style="rounded=0;whiteSpace=wrap;html=1;" vertex="1" parent="AgWGpJ8_KRVizvYN5xJG-1">
          <mxGeometry x="480" y="130" width="70" height="40" as="geometry" />
        </mxCell>
        <mxCell id="AgWGpJ8_KRVizvYN5xJG-7" value="" style="rounded=0;whiteSpace=wrap;html=1;" vertex="1" parent="AgWGpJ8_KRVizvYN5xJG-1">
          <mxGeometry x="550" y="130" width="70" height="40" as="geometry" />
        </mxCell>
        <mxCell id="AgWGpJ8_KRVizvYN5xJG-8" value="" style="rounded=0;whiteSpace=wrap;html=1;" vertex="1" parent="AgWGpJ8_KRVizvYN5xJG-1">
          <mxGeometry x="620" y="130" width="70" height="40" as="geometry" />
        </mxCell>
        <mxCell id="AgWGpJ8_KRVizvYN5xJG-9" value="" style="rounded=0;whiteSpace=wrap;html=1;" vertex="1" parent="AgWGpJ8_KRVizvYN5xJG-1">
          <mxGeometry x="410" y="170" width="70" height="40" as="geometry" />
        </mxCell>
        <mxCell id="AgWGpJ8_KRVizvYN5xJG-10" value="" style="rounded=0;whiteSpace=wrap;html=1;" vertex="1" parent="AgWGpJ8_KRVizvYN5xJG-1">
          <mxGeometry x="480" y="170" width="70" height="40" as="geometry" />
        </mxCell>
        <mxCell id="AgWGpJ8_KRVizvYN5xJG-11" value="" style="rounded=0;whiteSpace=wrap;html=1;" vertex="1" parent="AgWGpJ8_KRVizvYN5xJG-1">
          <mxGeometry x="550" y="170" width="70" height="40" as="geometry" />
        </mxCell>
        <mxCell id="AgWGpJ8_KRVizvYN5xJG-12" value="" style="rounded=0;whiteSpace=wrap;html=1;" vertex="1" parent="AgWGpJ8_KRVizvYN5xJG-1">
          <mxGeometry x="620" y="170" width="70" height="40" as="geometry" />
        </mxCell>
        <mxCell id="AgWGpJ8_KRVizvYN5xJG-13" value="" style="rounded=0;whiteSpace=wrap;html=1;" vertex="1" parent="AgWGpJ8_KRVizvYN5xJG-1">
          <mxGeometry x="410" y="210" width="70" height="40" as="geometry" />
        </mxCell>
        <mxCell id="AgWGpJ8_KRVizvYN5xJG-14" value="" style="rounded=0;whiteSpace=wrap;html=1;" vertex="1" parent="AgWGpJ8_KRVizvYN5xJG-1">
          <mxGeometry x="480" y="210" width="70" height="40" as="geometry" />
        </mxCell>
        <mxCell id="AgWGpJ8_KRVizvYN5xJG-15" value="" style="rounded=0;whiteSpace=wrap;html=1;" vertex="1" parent="AgWGpJ8_KRVizvYN5xJG-1">
          <mxGeometry x="550" y="210" width="70" height="40" as="geometry" />
        </mxCell>
        <mxCell id="AgWGpJ8_KRVizvYN5xJG-16" value="" style="rounded=0;whiteSpace=wrap;html=1;" vertex="1" parent="AgWGpJ8_KRVizvYN5xJG-1">
          <mxGeometry x="620" y="210" width="70" height="40" as="geometry" />
        </mxCell>
        <mxCell id="AgWGpJ8_KRVizvYN5xJG-17" value="" style="rounded=0;whiteSpace=wrap;html=1;" vertex="1" parent="AgWGpJ8_KRVizvYN5xJG-1">
          <mxGeometry x="410" y="250" width="70" height="40" as="geometry" />
        </mxCell>
        <mxCell id="AgWGpJ8_KRVizvYN5xJG-18" value="" style="rounded=0;whiteSpace=wrap;html=1;" vertex="1" parent="AgWGpJ8_KRVizvYN5xJG-1">
          <mxGeometry x="480" y="250" width="70" height="40" as="geometry" />
        </mxCell>
        <mxCell id="AgWGpJ8_KRVizvYN5xJG-19" value="" style="rounded=0;whiteSpace=wrap;html=1;" vertex="1" parent="AgWGpJ8_KRVizvYN5xJG-1">
          <mxGeometry x="550" y="250" width="70" height="40" as="geometry" />
        </mxCell>
        <mxCell id="AgWGpJ8_KRVizvYN5xJG-20" value="" style="rounded=0;whiteSpace=wrap;html=1;" vertex="1" parent="AgWGpJ8_KRVizvYN5xJG-1">
          <mxGeometry x="620" y="250" width="70" height="40" as="geometry" />
        </mxCell>
        <mxCell id="AgWGpJ8_KRVizvYN5xJG-21" value="" style="rounded=0;whiteSpace=wrap;html=1;" vertex="1" parent="AgWGpJ8_KRVizvYN5xJG-1">
          <mxGeometry x="410" y="290" width="70" height="40" as="geometry" />
        </mxCell>
        <mxCell id="AgWGpJ8_KRVizvYN5xJG-22" value="" style="rounded=0;whiteSpace=wrap;html=1;" vertex="1" parent="AgWGpJ8_KRVizvYN5xJG-1">
          <mxGeometry x="480" y="290" width="70" height="40" as="geometry" />
        </mxCell>
        <mxCell id="AgWGpJ8_KRVizvYN5xJG-23" value="" style="rounded=0;whiteSpace=wrap;html=1;" vertex="1" parent="AgWGpJ8_KRVizvYN5xJG-1">
          <mxGeometry x="550" y="290" width="70" height="40" as="geometry" />
        </mxCell>
        <mxCell id="AgWGpJ8_KRVizvYN5xJG-24" value="" style="rounded=0;whiteSpace=wrap;html=1;" vertex="1" parent="AgWGpJ8_KRVizvYN5xJG-1">
          <mxGeometry x="620" y="290" width="70" height="40" as="geometry" />
        </mxCell>
        <mxCell id="AgWGpJ8_KRVizvYN5xJG-25" style="edgeStyle=orthogonalEdgeStyle;rounded=0;comic=0;sketch=0;jumpStyle=none;orthogonalLoop=1;jettySize=auto;html=1;exitX=0;exitY=0.75;exitDx=0;exitDy=0;entryX=0;entryY=0.75;entryDx=0;entryDy=0;dashed=1;fontFamily=Times New Roman;fontSize=17;strokeWidth=1;curved=1;" edge="1" parent="AgWGpJ8_KRVizvYN5xJG-1" source="AgWGpJ8_KRVizvYN5xJG-26" target="AgWGpJ8_KRVizvYN5xJG-34">
          <mxGeometry relative="1" as="geometry">
            <Array as="points">
              <mxPoint x="380" y="360" />
              <mxPoint x="380" y="440" />
            </Array>
          </mxGeometry>
        </mxCell>
        <mxCell id="AgWGpJ8_KRVizvYN5xJG-26" value="" style="rounded=0;whiteSpace=wrap;html=1;" vertex="1" parent="AgWGpJ8_KRVizvYN5xJG-1">
          <mxGeometry x="410" y="330" width="70" height="40" as="geometry" />
        </mxCell>
        <mxCell id="AgWGpJ8_KRVizvYN5xJG-27" value="" style="rounded=0;whiteSpace=wrap;html=1;" vertex="1" parent="AgWGpJ8_KRVizvYN5xJG-1">
          <mxGeometry x="480" y="330" width="70" height="40" as="geometry" />
        </mxCell>
        <mxCell id="AgWGpJ8_KRVizvYN5xJG-28" value="" style="rounded=0;whiteSpace=wrap;html=1;" vertex="1" parent="AgWGpJ8_KRVizvYN5xJG-1">
          <mxGeometry x="550" y="330" width="70" height="40" as="geometry" />
        </mxCell>
        <mxCell id="AgWGpJ8_KRVizvYN5xJG-29" value="" style="rounded=0;whiteSpace=wrap;html=1;" vertex="1" parent="AgWGpJ8_KRVizvYN5xJG-1">
          <mxGeometry x="620" y="330" width="70" height="40" as="geometry" />
        </mxCell>
        <mxCell id="AgWGpJ8_KRVizvYN5xJG-30" value="" style="rounded=0;whiteSpace=wrap;html=1;" vertex="1" parent="AgWGpJ8_KRVizvYN5xJG-1">
          <mxGeometry x="410" y="370" width="70" height="40" as="geometry" />
        </mxCell>
        <mxCell id="AgWGpJ8_KRVizvYN5xJG-31" value="" style="rounded=0;whiteSpace=wrap;html=1;" vertex="1" parent="AgWGpJ8_KRVizvYN5xJG-1">
          <mxGeometry x="480" y="370" width="70" height="40" as="geometry" />
        </mxCell>
        <mxCell id="AgWGpJ8_KRVizvYN5xJG-32" value="" style="rounded=0;whiteSpace=wrap;html=1;" vertex="1" parent="AgWGpJ8_KRVizvYN5xJG-1">
          <mxGeometry x="550" y="370" width="70" height="40" as="geometry" />
        </mxCell>
        <mxCell id="AgWGpJ8_KRVizvYN5xJG-33" value="" style="rounded=0;whiteSpace=wrap;html=1;" vertex="1" parent="AgWGpJ8_KRVizvYN5xJG-1">
          <mxGeometry x="620" y="370" width="70" height="40" as="geometry" />
        </mxCell>
        <mxCell id="AgWGpJ8_KRVizvYN5xJG-34" value="" style="rounded=0;whiteSpace=wrap;html=1;" vertex="1" parent="AgWGpJ8_KRVizvYN5xJG-1">
          <mxGeometry x="410" y="410" width="70" height="40" as="geometry" />
        </mxCell>
        <mxCell id="AgWGpJ8_KRVizvYN5xJG-35" value="" style="rounded=0;whiteSpace=wrap;html=1;" vertex="1" parent="AgWGpJ8_KRVizvYN5xJG-1">
          <mxGeometry x="480" y="410" width="70" height="40" as="geometry" />
        </mxCell>
        <mxCell id="AgWGpJ8_KRVizvYN5xJG-36" value="" style="rounded=0;whiteSpace=wrap;html=1;" vertex="1" parent="AgWGpJ8_KRVizvYN5xJG-1">
          <mxGeometry x="550" y="410" width="70" height="40" as="geometry" />
        </mxCell>
        <mxCell id="AgWGpJ8_KRVizvYN5xJG-37" value="" style="rounded=0;whiteSpace=wrap;html=1;" vertex="1" parent="AgWGpJ8_KRVizvYN5xJG-1">
          <mxGeometry x="620" y="410" width="70" height="40" as="geometry" />
        </mxCell>
        <mxCell id="AgWGpJ8_KRVizvYN5xJG-38" value="&lt;font face=&quot;Times New Roman&quot; style=&quot;font-size: 17px&quot;&gt;Key x&lt;/font&gt;" style="text;html=1;align=center;verticalAlign=middle;resizable=0;points=[];autosize=1;strokeColor=none;fillColor=none;" vertex="1" parent="AgWGpJ8_KRVizvYN5xJG-1">
          <mxGeometry x="260" y="280" width="60" height="20" as="geometry" />
        </mxCell>
        <mxCell id="AgWGpJ8_KRVizvYN5xJG-39" value="" style="rounded=0;whiteSpace=wrap;html=1;" vertex="1" parent="AgWGpJ8_KRVizvYN5xJG-1">
          <mxGeometry x="110" y="130" width="70" height="40" as="geometry" />
        </mxCell>
        <mxCell id="AgWGpJ8_KRVizvYN5xJG-40" value="" style="rounded=0;whiteSpace=wrap;html=1;" vertex="1" parent="AgWGpJ8_KRVizvYN5xJG-1">
          <mxGeometry x="110" y="170" width="70" height="40" as="geometry" />
        </mxCell>
        <mxCell id="AgWGpJ8_KRVizvYN5xJG-41" value="" style="rounded=0;whiteSpace=wrap;html=1;" vertex="1" parent="AgWGpJ8_KRVizvYN5xJG-1">
          <mxGeometry x="110" y="210" width="70" height="40" as="geometry" />
        </mxCell>
        <mxCell id="AgWGpJ8_KRVizvYN5xJG-42" value="" style="rounded=0;whiteSpace=wrap;html=1;" vertex="1" parent="AgWGpJ8_KRVizvYN5xJG-1">
          <mxGeometry x="110" y="250" width="70" height="40" as="geometry" />
        </mxCell>
        <mxCell id="AgWGpJ8_KRVizvYN5xJG-43" value="" style="rounded=0;whiteSpace=wrap;html=1;" vertex="1" parent="AgWGpJ8_KRVizvYN5xJG-1">
          <mxGeometry x="110" y="290" width="70" height="40" as="geometry" />
        </mxCell>
        <mxCell id="AgWGpJ8_KRVizvYN5xJG-44" value="" style="rounded=0;whiteSpace=wrap;html=1;" vertex="1" parent="AgWGpJ8_KRVizvYN5xJG-1">
          <mxGeometry x="110" y="330" width="70" height="40" as="geometry" />
        </mxCell>
        <mxCell id="AgWGpJ8_KRVizvYN5xJG-45" value="" style="rounded=0;whiteSpace=wrap;html=1;" vertex="1" parent="AgWGpJ8_KRVizvYN5xJG-1">
          <mxGeometry x="110" y="370" width="70" height="40" as="geometry" />
        </mxCell>
        <mxCell id="AgWGpJ8_KRVizvYN5xJG-46" value="" style="rounded=0;whiteSpace=wrap;html=1;" vertex="1" parent="AgWGpJ8_KRVizvYN5xJG-1">
          <mxGeometry x="110" y="410" width="70" height="40" as="geometry" />
        </mxCell>
        <mxCell id="AgWGpJ8_KRVizvYN5xJG-47" value="NVM" style="text;html=1;strokeColor=none;fillColor=none;align=center;verticalAlign=middle;whiteSpace=wrap;rounded=0;fontFamily=Times New Roman;fontSize=17;" vertex="1" parent="AgWGpJ8_KRVizvYN5xJG-1">
          <mxGeometry x="520" y="90" width="60" height="30" as="geometry" />
        </mxCell>
        <mxCell id="AgWGpJ8_KRVizvYN5xJG-48" value="DRAM" style="text;html=1;strokeColor=none;fillColor=none;align=center;verticalAlign=middle;whiteSpace=wrap;rounded=0;fontFamily=Times New Roman;fontSize=17;" vertex="1" parent="AgWGpJ8_KRVizvYN5xJG-1">
          <mxGeometry x="115" y="90" width="60" height="30" as="geometry" />
        </mxCell>
        <mxCell id="AgWGpJ8_KRVizvYN5xJG-49" value="" style="endArrow=classic;html=1;rounded=0;fontFamily=Times New Roman;fontSize=17;entryX=0;entryY=0.5;entryDx=0;entryDy=0;exitX=0.85;exitY=-0.225;exitDx=0;exitDy=0;exitPerimeter=0;" edge="1" parent="AgWGpJ8_KRVizvYN5xJG-1" source="AgWGpJ8_KRVizvYN5xJG-38" target="AgWGpJ8_KRVizvYN5xJG-9">
          <mxGeometry width="50" height="50" relative="1" as="geometry">
            <mxPoint x="310" y="290" as="sourcePoint" />
            <mxPoint x="360" y="240" as="targetPoint" />
          </mxGeometry>
        </mxCell>
        <mxCell id="AgWGpJ8_KRVizvYN5xJG-50" value="Bucket 0" style="text;html=1;strokeColor=none;fillColor=none;align=center;verticalAlign=middle;whiteSpace=wrap;rounded=0;dashed=1;fontFamily=Times New Roman;fontSize=17;" vertex="1" parent="AgWGpJ8_KRVizvYN5xJG-1">
          <mxGeometry x="700" y="135" width="70" height="30" as="geometry" />
        </mxCell>
        <mxCell id="AgWGpJ8_KRVizvYN5xJG-51" value="Bucket 3" style="text;html=1;strokeColor=none;fillColor=none;align=center;verticalAlign=middle;whiteSpace=wrap;rounded=0;dashed=1;fontFamily=Times New Roman;fontSize=17;" vertex="1" parent="AgWGpJ8_KRVizvYN5xJG-1">
          <mxGeometry x="700" y="255" width="70" height="30" as="geometry" />
        </mxCell>
        <mxCell id="AgWGpJ8_KRVizvYN5xJG-52" value="Bucket 7" style="text;html=1;strokeColor=none;fillColor=none;align=center;verticalAlign=middle;whiteSpace=wrap;rounded=0;dashed=1;fontFamily=Times New Roman;fontSize=17;" vertex="1" parent="AgWGpJ8_KRVizvYN5xJG-1">
          <mxGeometry x="700" y="415" width="70" height="30" as="geometry" />
        </mxCell>
        <mxCell id="AgWGpJ8_KRVizvYN5xJG-53" value="" style="endArrow=none;dashed=1;html=1;rounded=0;fontFamily=Times New Roman;fontSize=17;strokeWidth=2;" edge="1" parent="AgWGpJ8_KRVizvYN5xJG-1">
          <mxGeometry width="50" height="50" relative="1" as="geometry">
            <mxPoint x="730" y="240" as="sourcePoint" />
            <mxPoint x="730" y="180" as="targetPoint" />
          </mxGeometry>
        </mxCell>
        <mxCell id="AgWGpJ8_KRVizvYN5xJG-54" value="" style="endArrow=none;dashed=1;html=1;rounded=0;fontFamily=Times New Roman;fontSize=17;strokeWidth=2;" edge="1" parent="AgWGpJ8_KRVizvYN5xJG-1">
          <mxGeometry width="50" height="50" relative="1" as="geometry">
            <mxPoint x="730" y="370" as="sourcePoint" />
            <mxPoint x="730" y="310" as="targetPoint" />
          </mxGeometry>
        </mxCell>
        <mxCell id="AgWGpJ8_KRVizvYN5xJG-55" value="" style="endArrow=classic;html=1;rounded=0;fontFamily=Times New Roman;fontSize=17;strokeWidth=1;entryX=0;entryY=0.5;entryDx=0;entryDy=0;" edge="1" parent="AgWGpJ8_KRVizvYN5xJG-1" target="AgWGpJ8_KRVizvYN5xJG-26">
          <mxGeometry width="50" height="50" relative="1" as="geometry">
            <mxPoint x="310" y="310" as="sourcePoint" />
            <mxPoint x="410" y="370" as="targetPoint" />
          </mxGeometry>
        </mxCell>
        <mxCell id="AgWGpJ8_KRVizvYN5xJG-56" value="" style="endArrow=classic;html=1;fontFamily=Times New Roman;fontSize=17;strokeWidth=1;entryX=1;entryY=0.5;entryDx=0;entryDy=0;jumpStyle=none;rounded=0;sketch=0;noJump=0;flowAnimation=0;ignoreEdge=0;orthogonalLoop=0;orthogonal=0;enumerate=0;comic=0;exitX=0.217;exitY=-0.175;exitDx=0;exitDy=0;exitPerimeter=0;dashed=1;" edge="1" parent="AgWGpJ8_KRVizvYN5xJG-1" source="AgWGpJ8_KRVizvYN5xJG-38" target="AgWGpJ8_KRVizvYN5xJG-40">
          <mxGeometry width="50" height="50" relative="1" as="geometry">
            <mxPoint x="270" y="270" as="sourcePoint" />
            <mxPoint x="210" y="210" as="targetPoint" />
          </mxGeometry>
        </mxCell>
        <mxCell id="AgWGpJ8_KRVizvYN5xJG-57" value="" style="endArrow=classic;html=1;rounded=0;dashed=1;comic=0;sketch=0;fontFamily=Times New Roman;fontSize=17;strokeWidth=1;jumpStyle=none;entryX=1;entryY=0.5;entryDx=0;entryDy=0;" edge="1" parent="AgWGpJ8_KRVizvYN5xJG-1" target="AgWGpJ8_KRVizvYN5xJG-44">
          <mxGeometry width="50" height="50" relative="1" as="geometry">
            <mxPoint x="270" y="310" as="sourcePoint" />
            <mxPoint x="190" y="385" as="targetPoint" />
          </mxGeometry>
        </mxCell>
        <mxCell id="AgWGpJ8_KRVizvYN5xJG-58" value="VersionLock" style="text;html=1;strokeColor=none;fillColor=none;align=center;verticalAlign=middle;whiteSpace=wrap;rounded=0;dashed=1;fontFamily=Times New Roman;fontSize=17;" vertex="1" parent="AgWGpJ8_KRVizvYN5xJG-1">
          <mxGeometry x="30" y="135" width="70" height="30" as="geometry" />
        </mxCell>
        <mxCell id="AgWGpJ8_KRVizvYN5xJG-59" value="&lt;font style=&quot;font-size: 13px&quot;&gt;一次移动&lt;/font&gt;" style="text;html=1;strokeColor=none;fillColor=none;align=center;verticalAlign=middle;whiteSpace=wrap;rounded=0;fontFamily=Times New Roman;fontSize=17;" vertex="1" parent="AgWGpJ8_KRVizvYN5xJG-1">
          <mxGeometry x="340" y="385" width="40" height="30" as="geometry" />
        </mxCell>
        <mxCell id="AgWGpJ8_KRVizvYN5xJG-60" style="edgeStyle=orthogonalEdgeStyle;curved=1;rounded=0;comic=0;sketch=0;jumpStyle=none;orthogonalLoop=1;jettySize=auto;html=1;exitX=0.5;exitY=1;exitDx=0;exitDy=0;dashed=1;fontFamily=Times New Roman;fontSize=17;strokeWidth=1;" edge="1" parent="AgWGpJ8_KRVizvYN5xJG-1" source="AgWGpJ8_KRVizvYN5xJG-59" target="AgWGpJ8_KRVizvYN5xJG-59">
          <mxGeometry relative="1" as="geometry" />
        </mxCell>
        <mxCell id="AgWGpJ8_KRVizvYN5xJG-61" value="&lt;font style=&quot;font-size: 14px&quot;&gt;h&lt;sub&gt;1&lt;/sub&gt;&lt;/font&gt;" style="text;html=1;strokeColor=none;fillColor=none;align=center;verticalAlign=middle;whiteSpace=wrap;rounded=0;fontFamily=Times New Roman;fontSize=13;" vertex="1" parent="AgWGpJ8_KRVizvYN5xJG-1">
          <mxGeometry x="210" y="215" width="60" height="30" as="geometry" />
        </mxCell>
        <mxCell id="AgWGpJ8_KRVizvYN5xJG-62" value="&lt;font style=&quot;font-size: 14px&quot;&gt;h&lt;/font&gt;&lt;font style=&quot;font-size: 11.6667px&quot;&gt;2&lt;/font&gt;" style="text;html=1;strokeColor=none;fillColor=none;align=center;verticalAlign=middle;whiteSpace=wrap;rounded=0;fontFamily=Times New Roman;fontSize=13;" vertex="1" parent="AgWGpJ8_KRVizvYN5xJG-1">
          <mxGeometry x="210" y="320" width="60" height="30" as="geometry" />
        </mxCell>
        <mxCell id="AgWGpJ8_KRVizvYN5xJG-63" value="&lt;font style=&quot;font-size: 14px&quot;&gt;h&lt;sub&gt;1&lt;/sub&gt;&lt;/font&gt;" style="text;html=1;strokeColor=none;fillColor=none;align=center;verticalAlign=middle;whiteSpace=wrap;rounded=0;fontFamily=Times New Roman;fontSize=13;" vertex="1" parent="AgWGpJ8_KRVizvYN5xJG-1">
          <mxGeometry x="350" y="220" width="60" height="30" as="geometry" />
        </mxCell>
        <mxCell id="AgWGpJ8_KRVizvYN5xJG-64" value="&lt;font style=&quot;font-size: 14px&quot;&gt;h&lt;/font&gt;&lt;font style=&quot;font-size: 11.6667px&quot;&gt;2&lt;/font&gt;" style="text;html=1;strokeColor=none;fillColor=none;align=center;verticalAlign=middle;whiteSpace=wrap;rounded=0;fontFamily=Times New Roman;fontSize=13;" vertex="1" parent="AgWGpJ8_KRVizvYN5xJG-1">
          <mxGeometry x="340" y="330" width="60" height="30" as="geometry" />
        </mxCell>
      </root>
    </mxGraphModel>
  </diagram>
</mxfile>
